# xmcd
#
# Track frame offsets:
#	150
#	21353
#	37147
#	51777
#	66841
#	84020
#	91960
#	112252
#	125757
#	139441
#	160832
#	185981
#	197268
#	215110
#
# Disc length: 3050
#
# Revision: 1
# Processed by: cddbd v1.5.1PL0 Copyright (c) Steve Scherf et al.
# Submitted via: AltoMP3_Maker 3.0
# Normalized: r0:TRMNUM
#
DISCID=d50be80e
DTITLE=Freygang - No 9
DYEAR=1900
DGENRE=
TTITLE0=der bewaffnete blues
TTITLE1=tschüß und danke
TTITLE2=RGM (weg von der mitte)
TTITLE3=tanzlied des totenschiffes
TTITLE4=dein bauch
TTITLE5=keine angst
TTITLE6=norfahrt
TTITLE7=paradies
TTITLE8=seeräuberjenny
TTITLE9=resolution der kommunarden
TTITLE10=im nebel
TTITLE11=spanisch moll
TTITLE12=fernsehn
TTITLE13=plastikfraß
EXTD=
EXTT0=
EXTT1=
EXTT2=
EXTT3=
EXTT4=
EXTT5=
EXTT6=
EXTT7=
EXTT8=
EXTT9=
EXTT10=
EXTT11=
EXTT12=
EXTT13=
PLAYORDER=
